<svg width="228" height="227" viewBox="0 0 228 227" fill="none" xmlns="http://www.w3.org/2000/svg">
<g clip-path="url(#clip0_11_373)">
<path d="M160.498 133.628L161.709 136.228C165.59 144.547 161.994 154.437 153.676 158.319C151.716 159.233 149.597 159.756 147.438 159.859L145.817 159.936C130.488 160.666 115.138 159.051 100.297 155.145L78.2814 149.352C78.049 149.291 77.8675 149.109 77.8064 148.877L72.0128 126.861C68.1073 112.02 66.4916 96.67 67.2216 81.3414L67.2987 79.7205C67.7354 70.5514 75.5223 63.4724 84.6914 63.909C86.8512 64.0118 88.9702 64.5351 90.9296 65.4495L93.5386 66.6573M83.1009 112.889L88.1233 77.7274C89.6854 66.7927 99.816 59.1947 110.751 60.7568C112.879 61.0608 114.944 61.7059 116.867 62.6672L120.332 64.3999C122.727 65.5972 125.062 66.8917 127.334 68.2783L128.395 68.935C124.016 70.2368 120.159 73.196 117.806 77.431M117.806 77.431L96.1313 116.444M117.806 77.431C122.004 69.8752 130.988 66.3806 139.188 69.1139C148.091 72.0815 155.077 79.0674 158.044 87.9701C160.777 96.1701 157.283 105.154 149.727 109.352M110.713 131.024L149.727 109.352M149.727 109.352C153.96 107 156.918 103.147 158.221 98.7705C159.86 101.369 161.374 104.058 162.758 106.826L164.491 110.292C169.431 120.171 165.426 132.185 155.547 137.124C153.624 138.086 151.559 138.731 149.431 139.035L114.269 144.052" stroke="white" stroke-width="3" stroke-linecap="round"/>
<path fill-rule="evenodd" clip-rule="evenodd" d="M115.914 158.382L106.929 167.369C103.024 171.275 96.6923 171.275 92.787 167.369L59.7887 134.371C55.8835 130.466 55.8835 124.134 59.7887 120.229L68.7744 111.234C69.5761 116.49 70.6564 121.706 72.0129 126.861L77.8065 148.877C77.8677 149.109 78.0492 149.291 78.2815 149.352L100.297 155.145C105.449 156.501 110.662 157.581 115.914 158.382Z" stroke="white" stroke-width="3" stroke-linecap="round"/>
</g>
<defs>
<clipPath id="clip0_11_373">
<rect width="160" height="160" fill="white" transform="translate(114 0.0209961) rotate(45)"/>
</clipPath>
</defs>
</svg>
