<svg width="161" height="161" viewBox="0 0 161 161" fill="none" xmlns="http://www.w3.org/2000/svg">
<path d="M127.498 100.628L128.709 103.228C132.59 111.547 128.994 121.437 120.676 125.319C118.716 126.233 116.597 126.756 114.438 126.859L112.817 126.936C97.488 127.666 82.1378 126.051 67.2971 122.145L45.2814 116.352C45.049 116.291 44.8675 116.109 44.8064 115.877L39.0128 93.861C35.1073 79.0202 33.4916 63.67 34.2216 48.3414L34.2987 46.7205C34.7354 37.5514 42.5223 30.4724 51.6914 30.909C53.8512 31.0118 55.9702 31.5351 57.9296 32.4495L60.5386 33.6573M50.1009 79.8887L55.1233 44.7274C56.6854 33.7927 66.816 26.1947 77.7507 27.7568C79.8787 28.0608 81.9438 28.7059 83.8665 29.6672L87.3318 31.3999C89.7265 32.5972 92.0622 33.8917 94.3338 35.2783L95.3949 35.935C91.0156 37.2368 87.1591 40.196 84.8063 44.431M84.8063 44.431L63.1313 83.4441M84.8063 44.431C89.004 36.8752 97.9879 33.3806 106.188 36.1139C115.091 39.0815 122.077 46.0674 125.044 54.9701C127.777 63.1701 124.283 72.1541 116.727 76.3518M77.7126 98.0241L116.727 76.3518M116.727 76.3518C120.96 74.0003 123.918 70.1468 125.221 65.7705C126.86 68.3688 128.374 71.0581 129.758 73.8263L131.491 77.2915C136.431 87.1711 132.426 99.1846 122.547 104.124C120.624 105.086 118.559 105.731 116.431 106.035L81.2691 111.052" stroke="white" stroke-width="3" stroke-linecap="round"/>
<path fill-rule="evenodd" clip-rule="evenodd" d="M82.9142 125.382L73.9292 134.369C70.0239 138.275 63.6923 138.275 59.787 134.369L26.7887 101.371C22.8835 97.4659 22.8835 91.1343 26.7887 87.229L35.7744 78.2344C36.5761 83.4899 37.6564 88.7062 39.0129 93.861L44.8065 115.877C44.8677 116.109 45.0492 116.291 45.2815 116.352L67.2972 122.145C72.4489 123.501 77.6619 124.581 82.9142 125.382Z" stroke="white" stroke-width="3" stroke-linecap="round"/>
</svg>
