<svg width="227" height="227" viewBox="0 0 227 227" fill="none" xmlns="http://www.w3.org/2000/svg">
<g clip-path="url(#clip0_9_394)">
<path d="M61.2825 128.005L72.5813 119.935C73.5938 119.211 74.5448 118.406 75.4246 117.526C84.2466 108.704 84.2466 94.4006 75.4246 85.5786L70.7106 99.7208L56.5685 85.5786L55.6504 86.5428C46.164 97.01 46.47 113.193 56.5685 123.291L61.2825 128.005ZM61.2825 128.005L64.2972 131.02C68.4558 135.178 73.8725 137.846 79.7043 138.606L92.3952 140.262M91.9238 144.504L85.9656 150.462C82.3945 154.034 81.1475 159.316 82.7445 164.107L84.8527 170.431M102.766 161.946L100.108 164.605C96.5366 168.176 95.2896 173.458 96.8867 178.249L98.9949 184.574M129.636 163.36L123.678 169.319C120.107 172.89 118.86 178.172 120.457 182.963L122.565 189.288M143.778 92.6497L149.737 86.6915C153.308 83.1204 158.59 81.8734 163.381 83.4705L169.706 85.5786M161.22 103.492L163.879 100.834C167.45 97.2625 172.732 96.0156 177.523 97.6126L183.848 99.7208M162.634 130.362L168.593 124.404C172.164 120.833 177.446 119.586 182.237 121.183L188.562 123.291M127.279 62.0084L130.294 65.0231C134.452 69.1817 137.12 74.5985 137.88 80.4302L139.536 93.1211M127.279 62.0084L119.209 73.3072C118.485 74.3197 117.68 75.2707 116.8 76.1506C107.978 84.9725 93.6747 84.9725 84.8527 76.1506L98.9949 71.4365L84.8527 57.2944L85.8169 56.3763C96.2841 46.89 112.467 47.196 122.565 57.2944L127.279 62.0084ZM127.812 163.512L134.056 161.887C147.335 158.431 157.705 148.061 161.161 134.781L162.786 128.538C165.318 118.81 163.661 108.465 158.215 100.015C153.797 93.1601 144.659 91.1842 137.803 95.602L137.399 95.8721L131.404 100.31C119.292 109.296 108.57 120.018 99.5841 132.13L95.4295 137.73C90.57 144.279 91.9402 153.528 98.4899 158.388C98.7503 158.581 99.017 158.765 99.2895 158.941C107.739 164.386 118.084 166.044 127.812 163.512Z" stroke="white" stroke-width="3" stroke-linecap="round"/>
<path fill-rule="evenodd" clip-rule="evenodd" d="M99.466 114.334L98.9946 113.863L99.466 114.334Z" stroke="white" stroke-width="3" stroke-linecap="round" stroke-linejoin="round"/>
<path fill-rule="evenodd" clip-rule="evenodd" d="M113.609 100.192L113.137 99.7208L113.609 100.192Z" stroke="white" stroke-width="3" stroke-linecap="round" stroke-linejoin="round"/>
</g>
<defs>
<clipPath id="clip0_9_394">
<rect width="160" height="160" fill="white" transform="translate(0 113.863) rotate(-45)"/>
</clipPath>
</defs>
</svg>
