<svg width="144" height="144" viewBox="0 0 144 144" fill="none" xmlns="http://www.w3.org/2000/svg">
<path d="M14.2825 81.0051L25.5813 72.9345C26.5938 72.2113 27.5448 71.4056 28.4246 70.5258C37.2466 61.7038 37.2466 47.4006 28.4246 38.5786L23.7106 52.7208L9.56845 38.5786L8.65042 39.5428C-0.835967 50.01 -0.529955 66.1926 9.56845 76.291L14.2825 81.0051ZM14.2825 81.0051L17.2972 84.0197C21.4558 88.1784 26.8725 90.8456 32.7043 91.6062L45.3952 93.2616M44.9238 97.5042L38.9656 103.462C35.3945 107.034 34.1475 112.316 35.7445 117.107L37.8527 123.431M55.7661 114.946L53.1077 117.605C49.5366 121.176 48.2896 126.458 49.8867 131.249L51.9949 137.574M82.6362 116.36L76.6779 122.319C73.1068 125.89 71.8599 131.172 73.4569 135.963L75.5651 142.288M96.7783 45.6497L102.737 39.6915C106.308 36.1204 111.59 34.8734 116.381 36.4705L122.706 38.5786M114.22 56.492L116.879 53.8336C120.45 50.2625 125.732 49.0156 130.523 50.6126L136.848 52.7208M115.634 83.3621L121.593 77.4038C125.164 73.8327 130.446 72.5858 135.237 74.1828L141.562 76.291M80.2791 15.0084L83.2938 18.0231C87.4524 22.1817 90.1197 27.5985 90.8803 33.4302L92.5357 46.1211M80.2791 15.0084L72.2086 26.3072C71.4854 27.3197 70.6797 28.2707 69.7999 29.1506C60.9779 37.9725 46.6747 37.9725 37.8527 29.1506L51.9949 24.4365L37.8527 10.2944L38.8169 9.37633C49.2841 -0.110049 65.4667 0.195963 75.5651 10.2944L80.2791 15.0084ZM80.8121 116.512L87.0556 114.887C100.335 111.431 110.705 101.061 114.161 87.7815L115.786 81.538C118.318 71.8096 116.661 61.4653 111.215 53.0154C106.797 46.1601 97.6585 44.1842 90.8032 48.602L90.3989 48.8721L84.4039 53.31C72.2921 62.2962 61.5703 73.018 52.5841 85.1298L48.4295 90.7296C43.57 97.2793 44.9402 106.528 51.4899 111.388C51.7503 111.581 52.017 111.765 52.2895 111.941C60.7394 117.386 71.0836 119.044 80.8121 116.512Z" stroke="white" stroke-width="3" stroke-linecap="round"/>
</svg>
