<svg width="80" height="80" viewBox="0 0 80 80" fill="none" xmlns="http://www.w3.org/2000/svg">
<path fill-rule="evenodd" clip-rule="evenodd" d="M27.8679 31.2593C43.3322 21.6137 63.6877 26.3306 73.3334 41.7949L72.5714 42.9609C70.7377 45.6418 68.5167 48.0395 65.9789 50.0747C53.0062 60.4781 34.5799 59.4893 22.7903 48.4372C20.9001 53.3109 15.995 56.5994 10.5063 56.2012L10 56.1538V55.2948C10 50.1457 12.2543 45.4424 15.9069 42.2241C12.5113 39.5894 10.275 35.5571 10.0237 31.0233L10 30.1676V27.4359L10.6909 27.4637C15.8815 27.8001 20.3256 30.9821 22.4235 35.508C24.0779 33.9103 25.9041 32.4842 27.8679 31.2593ZM46.7908 57.3007L47.2293 57.2794C44.7994 59.6993 41.8205 61.5373 38.4303 62.5326C35.7962 63.306 33.1451 63.5027 30.5886 63.1935C31.8369 60.6579 32.8051 57.9473 33.4617 55.1231C37.7111 56.7613 42.2576 57.4975 46.7908 57.3007ZM50.0442 26.1287L50.3893 26.6481C43.8572 25.6324 36.9948 26.5643 30.7359 29.6601C28.8232 25.6187 26.2577 22.0958 23.2359 19.2169C24.5397 18.4921 25.9359 17.9 27.4098 17.4673C36.1091 14.9132 44.9942 18.6482 50.0442 26.1287Z" stroke="white" stroke-width="3" stroke-linecap="round"/>
<path fill-rule="evenodd" clip-rule="evenodd" d="M58.3335 38.6667V38.3333V38.6667Z" stroke="white" stroke-width="3" stroke-linecap="round" stroke-linejoin="round"/>
</svg>
