<svg width="30" height="30" viewBox="0 0 30 30" fill="none" xmlns="http://www.w3.org/2000/svg">
<path d="M6.85213 2.49019C6.74145 2.3478 6.60173 2.2306 6.44226 2.14636C6.2828 2.06212 6.10723 2.01278 5.92723 2.0016C5.74723 1.99043 5.56691 2.01769 5.39825 2.08156C5.22959 2.14543 5.07645 2.24446 4.94901 2.37206L3.01026 4.31269C2.10463 5.22019 1.77088 6.50456 2.16651 7.63144C3.81038 12.2948 6.48117 16.5291 9.98151 20.0214C13.4739 23.5218 17.7082 26.1926 22.3715 27.8364C23.4984 28.2321 24.7828 27.8983 25.6903 26.9927L27.629 25.0539C27.7566 24.9265 27.8556 24.7734 27.9195 24.6047C27.9834 24.436 28.0106 24.2557 27.9995 24.0757C27.9883 23.8957 27.9389 23.7201 27.8547 23.5607C27.7705 23.4012 27.6533 23.2615 27.5109 23.1508L23.1853 19.7871C23.033 19.6693 22.8561 19.5876 22.6677 19.548C22.4794 19.5084 22.2845 19.5119 22.0978 19.5583L17.9915 20.5839C17.4434 20.72 16.8694 20.7123 16.3251 20.5615C15.7808 20.4107 15.2846 20.122 14.8846 19.7233L10.2796 15.1164C9.8806 14.7166 9.59154 14.2205 9.44044 13.6763C9.28934 13.132 9.28131 12.5579 9.41713 12.0096L10.4446 7.90331C10.4911 7.71653 10.4946 7.52167 10.455 7.33333C10.4154 7.14499 10.3336 6.96806 10.2159 6.81581L6.85213 2.49019ZM3.53338 0.958312C3.8615 0.630092 4.25569 0.375431 4.68977 0.211239C5.12385 0.0470471 5.5879 -0.0229192 6.0511 0.00598636C6.5143 0.0348919 6.96604 0.162008 7.37635 0.378893C7.78665 0.595779 8.14612 0.897471 8.43088 1.26394L11.7946 5.58769C12.4115 6.38081 12.629 7.41394 12.3853 8.38894L11.3596 12.4952C11.307 12.7079 11.31 12.9306 11.3685 13.1417C11.4269 13.3529 11.5388 13.5455 11.6934 13.7008L16.3003 18.3077C16.4558 18.4625 16.6487 18.5746 16.8602 18.6331C17.0717 18.6916 17.2948 18.6944 17.5078 18.6414L21.6121 17.6158C22.0933 17.4962 22.5954 17.4872 23.0806 17.5895C23.5657 17.6918 24.0214 17.9027 24.4134 18.2064L28.7371 21.5702C30.2915 22.7796 30.434 25.0764 29.0428 26.4658L27.104 28.4046C25.7165 29.7921 23.6428 30.4014 21.7096 29.7208C16.7609 27.9819 12.2681 25.1491 8.56588 21.4333C4.85033 17.7316 2.01754 13.2395 0.278383 8.29144C-0.400367 6.36019 0.209008 4.28456 1.59651 2.89706L3.53338 0.958312Z" fill="white"/>
</svg>
