<svg width="160" height="160" viewBox="0 0 160 160" fill="none" xmlns="http://www.w3.org/2000/svg">
<path d="M103.333 122.983L102.728 124.307C96.5925 136.903 82.426 143.589 68.7054 140.159L66.6667 139.649L66.7021 138.553C67.2664 129.859 74.4968 122.983 83.3333 122.983C74.1286 122.983 66.6667 115.521 66.6667 106.316L68.7054 105.806C82.8991 102.258 97.57 109.535 103.333 122.983ZM103.333 122.983L107.251 101.434C108.786 92.9912 103.377 84.844 95 82.9825C85.0164 80.7639 75.2288 77.7407 65.7331 73.9424L63.3333 72.9825C53.2672 68.9561 46.6667 59.2068 46.6667 48.3653V46.3158M103.333 122.983L112.965 118.855C121.812 115.063 129.029 108.258 133.333 99.6492L133.854 98.6086C137.82 90.6761 138.818 81.5865 136.667 72.9825C134.563 64.5674 128.701 57.5902 120.774 54.0673L118.333 52.9825C108.443 48.587 97.7412 46.3158 86.9185 46.3158H66.6667M46.6667 46.3158C39.3029 46.3158 33.3333 40.3463 33.3333 32.9825V26.3158M46.6667 46.3158H66.6667M66.6667 46.3158H33.3333C25.9695 46.3158 20 40.3463 20 32.9825V19.6492M137.669 84.8121L136.933 85.9928C131.635 94.0891 122.299 98.9596 112.293 98.3341L107.503 98.0318M133.538 65.3949L121.485 76.1073L120.185 77.1985C113.557 82.4528 105.013 84.6705 96.6662 83.3038M112.033 50.5064L93.2823 67.5743L92.0955 68.5957C84.4346 74.8344 74.0862 76.6909 64.732 73.5004L65.892 73.862" stroke="white" stroke-width="3" stroke-linecap="round"/>
<path d="M73.3335 60H74.0002" stroke="white" stroke-width="3" stroke-linecap="round"/>
</svg>
