<svg width="80" height="80" viewBox="0 0 80 80" fill="none" xmlns="http://www.w3.org/2000/svg">
<g clip-path="url(#clip0_4_236)">
<path d="M69.9999 10L68.7528 10.0171C57.1315 10.3352 46.0532 15.0905 37.8104 23.3333M69.9999 10L65.6281 9.32743C57.7112 8.10944 49.6406 8.31058 41.7942 9.92144L39.1474 10.4648C38.41 10.6162 37.7036 10.8914 37.0581 11.2787C33.9009 13.173 32.8771 17.2681 34.7714 20.4253L37.0017 24.1375L37.8104 23.3333M69.9999 10L70.6725 14.3717C71.8905 22.2887 71.6893 30.3593 70.0784 38.2057L69.5351 40.8525C68.7946 44.4592 65.2706 46.7827 61.6639 46.0423C60.9265 45.8909 60.2201 45.6157 59.5746 45.2284L55.8579 42.9937L56.6665 42.1895M69.9999 10L69.9828 11.2471C69.6647 22.8683 64.9094 33.9467 56.6665 42.1895M69.9999 10C69.9999 22.0734 65.2037 33.6523 56.6665 42.1895M37.8104 23.3333L25.2165 35.9272M56.6665 42.1895L44.0726 54.7834M44.0726 54.7834L25.2165 35.9272M44.0726 54.7834L41.0253 57.8308C38.803 60.053 38.803 63.656 41.0253 65.8782C43.2475 68.1004 46.8504 68.1004 49.0726 65.8782L49.763 65.1878M25.2165 35.9272L22.1691 38.9746C19.9469 41.1968 16.3439 41.1968 14.1217 38.9746C11.8995 36.7524 11.8995 33.1495 14.1217 30.9272L14.8121 30.2369M38.1801 48.8909L25.7046 61.3663C23.4824 63.5886 23.4824 67.1915 25.7046 69.4137C27.9268 71.6359 31.5298 71.6359 33.752 69.4137L34.4424 68.7234M31.109 41.8198L18.6335 54.2953C16.4113 56.5175 12.8084 56.5175 10.5862 54.2953C8.36395 52.0731 8.36395 48.4701 10.5862 46.2479L11.2765 45.5575" stroke="white" stroke-width="3" stroke-linecap="round"/>
<path fill-rule="evenodd" clip-rule="evenodd" d="M43.8371 43.2341L44.0728 42.9984L43.8371 43.2341Z" stroke="white" stroke-width="3" stroke-linecap="round" stroke-linejoin="round"/>
<path fill-rule="evenodd" clip-rule="evenodd" d="M36.7658 36.1629L37.0015 35.9272L36.7658 36.1629Z" stroke="white" stroke-width="3" stroke-linecap="round" stroke-linejoin="round"/>
</g>
<defs>
<clipPath id="clip0_4_236">
<rect width="80" height="80" fill="white"/>
</clipPath>
</defs>
</svg>
