<svg width="15" height="15" viewBox="0 0 15 15" fill="none" xmlns="http://www.w3.org/2000/svg">
<path fill-rule="evenodd" clip-rule="evenodd" d="M7.48371 11.7752L3.40871 14.264C3.30712 14.3257 3.18948 14.3558 3.07073 14.3506C2.95198 14.3453 2.83746 14.3049 2.74171 14.2344C2.64596 14.164 2.57329 14.0667 2.53292 13.9549C2.49256 13.8431 2.4863 13.7218 2.51496 13.6065L3.69621 8.90147L0.269965 6.23522C0.174323 6.16123 0.103271 6.06006 0.0661233 5.94499C0.0289752 5.82991 0.0274648 5.7063 0.0617899 5.59035C0.0961151 5.4744 0.164674 5.37153 0.258479 5.29522C0.352283 5.21891 0.466956 5.17273 0.587465 5.16272L5.06996 4.79397L6.93996 0.435221C6.98623 0.327114 7.06324 0.234985 7.16143 0.170282C7.25962 0.10558 7.37466 0.0711563 7.49225 0.0712894C7.60984 0.0714226 7.7248 0.106107 7.82285 0.171031C7.92089 0.235956 7.99769 0.328259 8.04371 0.436471L9.89746 4.79397L14.41 5.16397C14.5303 5.17403 14.6447 5.22014 14.7384 5.29628C14.8321 5.37243 14.9006 5.47506 14.9351 5.59077C14.9695 5.70648 14.9682 5.82989 14.9314 5.94486C14.8946 6.05984 14.824 6.16103 14.7287 6.23522L11.2887 8.90147L12.4675 13.609C12.4965 13.7244 12.4905 13.8459 12.4502 13.9579C12.41 14.0699 12.3373 14.1675 12.2415 14.2381C12.1457 14.3087 12.031 14.3492 11.9121 14.3545C11.7932 14.3598 11.6754 14.3296 11.5737 14.2677L7.48371 11.774V11.7752Z" fill="#FFCC00"/>
</svg>
