<svg width="40" height="41" viewBox="0 0 40 41" fill="none" xmlns="http://www.w3.org/2000/svg">
<path d="M39.9972 20.5718C39.9972 30.6757 32.5098 39.0288 22.7831 40.3843C21.8736 40.5104 20.9431 40.5763 19.9986 40.5763C18.9084 40.5763 17.8377 40.4894 16.7951 40.3212C7.27298 38.7877 0 30.5285 0 20.5718C0 9.52315 8.9546 0.565918 20 0.565918C31.0454 0.565918 40 9.52315 40 20.5718H39.9972Z" fill="black"/>
<path d="M22.7832 16.6304V20.9884H28.1728L27.3194 26.859H22.7832V40.3846C21.8738 40.5107 20.9433 40.5766 19.9988 40.5766C18.9085 40.5766 17.8379 40.4897 16.7953 40.3215V26.859H11.8247V20.9884H16.7953V15.6562C16.7953 12.348 19.4761 9.66504 22.7846 9.66504V9.66785C22.7944 9.66785 22.8028 9.66504 22.8127 9.66504H28.1742V14.7422H24.6708C23.6296 14.7422 22.7846 15.5875 22.7846 16.629L22.7832 16.6304Z" fill="white"/>
</svg>
