<svg width="40" height="41" viewBox="0 0 40 41" fill="none" xmlns="http://www.w3.org/2000/svg">
<path d="M20.0455 0.775879H19.9545C8.93392 0.775879 0 9.71243 0 20.7362V20.8273C0 31.8511 8.93392 40.7877 19.9545 40.7877H20.0455C31.0661 40.7877 40 31.8511 40 20.8273V20.7362C40 9.71243 31.0661 0.775879 20.0455 0.775879Z" fill="black"/>
<path d="M26.1891 8.91602H13.812C10.3926 8.91602 7.61084 11.6986 7.61084 15.119V26.4456C7.61084 29.866 10.3926 32.6486 13.812 32.6486H26.1891C29.6085 32.6486 32.3903 29.866 32.3903 26.4456V15.119C32.3903 11.6986 29.6085 8.91602 26.1891 8.91602ZM9.79842 15.119C9.79842 12.9056 11.5992 11.1042 13.812 11.1042H26.1891C28.4019 11.1042 30.2027 12.9056 30.2027 15.119V26.4456C30.2027 28.6591 28.4019 30.4604 26.1891 30.4604H13.812C11.5992 30.4604 9.79842 28.6591 9.79842 26.4456V15.119Z" fill="white"/>
<path d="M20.0011 26.5509C23.1808 26.5509 25.7692 23.9632 25.7692 20.7811C25.7692 17.599 23.1822 15.0112 20.0011 15.0112C16.8199 15.0112 14.2329 17.599 14.2329 20.7811C14.2329 23.9632 16.8199 26.5509 20.0011 26.5509ZM20.0011 17.2009C21.9756 17.2009 23.5816 18.8073 23.5816 20.7825C23.5816 22.7576 21.9756 24.3641 20.0011 24.3641C18.0265 24.3641 16.4205 22.7576 16.4205 20.7825C16.4205 18.8073 18.0265 17.2009 20.0011 17.2009Z" fill="white"/>
<path d="M26.3027 15.9432C27.1589 15.9432 27.8568 15.2465 27.8568 14.3886C27.8568 13.5307 27.1603 12.834 26.3027 12.834C25.445 12.834 24.7485 13.5307 24.7485 14.3886C24.7485 15.2465 25.445 15.9432 26.3027 15.9432Z" fill="white"/>
</svg>
