<svg width="40" height="41" viewBox="0 0 40 41" fill="none" xmlns="http://www.w3.org/2000/svg">
<path d="M20.0456 0.565918H19.9544C8.9339 0.565918 0 9.50247 0 20.5263V20.6174C0 31.6412 8.9339 40.5777 19.9544 40.5777H20.0456C31.0661 40.5777 40 31.6412 40 20.6174V20.5263C40 9.50247 31.0661 0.565918 20.0456 0.565918Z" fill="black"/>
<path d="M7.57586 19.8896C7.63192 19.8616 7.688 19.835 7.74265 19.8097C8.6928 19.3696 9.65556 18.9574 10.6169 18.5453C10.6688 18.5453 10.7556 18.485 10.8047 18.4654C10.879 18.4332 10.9532 18.4023 11.0275 18.3701C11.1705 18.3084 11.3134 18.2481 11.4549 18.1864C11.7408 18.0645 12.0253 17.9425 12.3112 17.8206L14.0223 17.0874C15.163 16.5996 16.3052 16.1104 17.4459 15.6225C18.5866 15.1347 19.7288 14.6455 20.8695 14.1576C22.0102 13.6698 23.1524 13.1806 24.2931 12.6928C25.4338 12.2049 26.576 11.7157 27.7167 11.2279C27.9704 11.1185 28.2451 10.9559 28.5169 10.9082C28.7454 10.8676 28.9682 10.7891 29.198 10.7456C29.6338 10.6629 30.1145 10.6293 30.5321 10.8101C30.6765 10.8732 30.8096 10.9615 30.9203 11.0723C31.45 11.5965 31.3758 12.4572 31.2636 13.1946C30.4831 18.3336 29.7025 23.4741 28.9205 28.6131C28.814 29.3182 28.6683 30.092 28.1119 30.5378C27.641 30.9148 26.9712 30.9569 26.3896 30.7971C25.808 30.6359 25.2951 30.298 24.792 29.9658C22.7053 28.5836 20.6173 27.2015 18.5306 25.8193C18.0345 25.4912 17.4824 25.0623 17.488 24.4665C17.4908 24.1077 17.7052 23.7881 17.9238 23.5035C19.7372 21.1372 22.3536 19.5111 24.3001 17.2542C24.5748 16.936 24.7906 16.3613 24.4136 16.1776C24.1894 16.0683 23.9315 16.2169 23.7269 16.3585C21.154 18.1458 18.5824 19.9345 16.0095 21.7218C15.17 22.3049 14.29 22.9049 13.2782 23.0479C12.3729 23.1769 11.462 22.9245 10.5861 22.6666C9.85176 22.4507 9.1188 22.2292 8.38868 22.0007C8.00049 21.8802 7.59969 21.7498 7.29979 21.4765C6.99989 21.2031 6.82754 20.7433 7.00832 20.3789C7.12184 20.1504 7.34186 20.006 7.57309 19.8882L7.57586 19.8896Z" fill="#FEFFFC"/>
</svg>
