<svg width="40" height="41" viewBox="0 0 40 41" fill="none" xmlns="http://www.w3.org/2000/svg">
<path d="M39.9972 20.5718C39.9972 30.6757 32.5098 39.0288 22.7831 40.3843C21.8736 40.5104 20.9431 40.5763 19.9986 40.5763C18.9083 40.5763 17.8377 40.4894 16.7951 40.3212C7.27298 38.7877 0 30.5285 0 20.5718C0 9.52315 8.95459 0.565918 20 0.565918C31.0454 0.565918 40 9.52315 40 20.5718H39.9972Z" fill="black"/>
<path d="M8.11068 9.39014L17.3343 21.7256L8.05322 31.7552H10.1426L18.269 22.9746L24.8343 31.7552H31.9434L22.2012 18.7258L30.8405 9.39014H28.7511L21.2679 17.4769L15.2211 9.39014H8.11207H8.11068ZM11.1824 10.9293H14.4476L28.8688 30.2161H25.6037L11.1824 10.9293Z" fill="white"/>
</svg>
