<svg width="40" height="41" viewBox="0 0 40 41" fill="none" xmlns="http://www.w3.org/2000/svg">
<path d="M20.0455 0.565918H19.9545C8.93392 0.565918 0 9.50246 0 20.5262V20.6174C0 31.6411 8.93392 40.5777 19.9545 40.5777H20.0455C31.0661 40.5777 40 31.6411 40 20.6174V20.5262C40 9.50246 31.0661 0.565918 20.0455 0.565918Z" fill="black"/>
<path d="M23.8979 26.4237C18.7787 26.4237 14.6137 22.2562 14.6123 17.1354C14.6137 15.8373 15.6704 14.7817 16.9653 14.7817C17.0984 14.7817 17.2301 14.793 17.3562 14.8154C17.6337 14.8616 17.8972 14.9556 18.1396 15.0971C18.1747 15.1182 18.1985 15.1518 18.2041 15.1911L18.745 18.6017C18.752 18.6409 18.7394 18.6816 18.7128 18.711C18.4143 19.0418 18.0331 19.2801 17.6085 19.3993L17.4039 19.4568L17.481 19.6544C18.1788 21.4319 19.5999 22.8519 21.3782 23.5528L21.5758 23.6313L21.6333 23.4267C21.7524 23.0019 21.9906 22.6206 22.3214 22.3221C22.3452 22.2996 22.3774 22.2884 22.4097 22.2884C22.4167 22.2884 22.4237 22.2884 22.4321 22.2898L25.8417 22.8309C25.8823 22.8379 25.916 22.8604 25.937 22.8954C26.0771 23.1379 26.171 23.4029 26.2187 23.6804C26.2411 23.8038 26.2509 23.9341 26.2509 24.0701C26.2509 25.3668 25.1956 26.4223 23.8979 26.4237Z" fill="#FDFDFD"/>
<path d="M32.9763 19.4486C32.7003 16.3282 31.2708 13.4334 28.9515 11.2985C26.6182 9.1509 23.5912 7.96777 20.4254 7.96777C13.4773 7.96777 7.8241 13.6227 7.8241 20.5728C7.8241 22.9054 8.46733 25.1778 9.68514 27.1571L6.96924 33.1709L15.6649 32.2443C17.177 32.8639 18.7774 33.1779 20.424 33.1779C20.8571 33.1779 21.3013 33.1554 21.747 33.1092C22.1393 33.0671 22.5359 33.0054 22.9255 32.9269C28.7441 31.7508 32.9917 26.5852 33.0254 20.6401V20.5728C33.0254 20.1943 33.0086 19.8158 32.9749 19.45L32.9763 19.4486ZM15.9998 29.6047L11.1889 30.1177L12.6253 26.9342L12.338 26.5487C12.317 26.5207 12.296 26.4926 12.2721 26.4604C11.0249 24.7376 10.3662 22.7022 10.3662 20.5742C10.3662 15.0259 14.8787 10.5121 20.4254 10.5121C25.6218 10.5121 30.0264 14.5675 30.451 19.7444C30.4734 20.0219 30.486 20.3009 30.486 20.5756C30.486 20.6541 30.4846 20.7312 30.4832 20.8139C30.3767 25.4553 27.1353 29.3972 22.6004 30.4009C22.2543 30.478 21.8997 30.5369 21.5465 30.5747C21.1794 30.6168 20.8024 30.6378 20.4282 30.6378C19.0955 30.6378 17.8006 30.3799 16.5772 29.8696C16.4413 29.8149 16.3081 29.7561 16.1834 29.6958L16.0012 29.6075L15.9998 29.6047Z" fill="#FDFDFD"/>
</svg>
